Music_FallarborTown:
	musicheader 3, 1, Music_FallarborTown_Ch1
	musicheader 1, 2, Music_FallarborTown_Ch2
	musicheader 1, 3, Music_FallarborTown_Ch3
 
 
Music_FallarborTown_Ch1:
	tempo 128
	dutycycle $0
	vibrato $12, $15
	tone $0001
	notetype $6, $82
	octave 3
	note __, 8
	note F_, 8
	note A_, 8
	octave 4
	note C_, 16
	octave 3
	note F_, 8
	note A_, 8
	octave 4
	note C_, 16
	octave 3
	note D#, 8
	note A_, 8
	note C_, 4
	dutycycle $2
	intensity $40
	octave 4
	note F_, 1
	note A_, 1
	octave 5
	note C_, 1
	note D#, 1
	intensity $87
	note F_, 8
	intensity $a2
	note D_, 4
	intensity $73
	note D_, 4
	intensity $a2
	note D#, 4
	intensity $73
	note D#, 4
	intensity $a2
	note F_, 4
	intensity $73
	note F_, 4
	intensity $a2
	note G_, 4
	intensity $73
	note G_, 12
	intensity $a2
	note A#, 4
	intensity $73
	note A#, 12
	intensity $a2
	note F_, 4
	intensity $73
	note F_, 12
	intensity $a2
	note A#, 4
	intensity $73
	note A#, 12
	intensity $a2
	note F_, 4
	intensity $73
	note F_, 12
	intensity $a2
	note A#, 4
	intensity $73
	note A#, 12
	intensity $a2
	note C_, 4
	intensity $73
	note C_, 12
	intensity $a2
	note F_, 4
	intensity $73
	note F_, 16
	intensity $72
	octave 3
	note D#, 4
	octave 2
	note A#, 4
	octave 3
	note D#, 4
	note G_, 4
	note A#, 4
	octave 4
	note D#, 4
	note G_, 4
	note __, 4
	note A#, 4
	note A_, 4
	note A#, 4
	intensity $50
	note F_, 1
	note G_, 1
	intensity $72
	note F_, 2
	note D#, 4
	note D_, 4
	octave 3
	note A#, 4
	note __, 4
	note C_, 4
	octave 2
	note B_, 4
	octave 3
	note C_, 4
	note F_, 4
	note A_, 4
	octave 4
	note C_, 4
	note D_, 4
	note __, 4
	note F_, 4
	note E_, 4
	note F_, 4
	intensity $50
	note D_, 1
	note D#, 1
	intensity $72
	note D_, 2
	octave 3
	note A#, 4
	note F_, 4
	note D_, 4
	note __, 4
	note C_, 4
	note D#, 4
	note G_, 4
	note __, 4
	note D#, 4
	note G_, 4
	note A#, 4
	note __, 4
	octave 4
	note F_, 4
	note E_, 4
	note F_, 4
	intensity $50
	note D_, 1
	note D#, 1
	intensity $72
	note D_, 2
	octave 3
	note A#, 4
	note F_, 4
	note D_, 4
	note __, 4
	note F_, 4
	note A_, 4
	octave 4
	note C_, 4
	note __, 4
	octave 3
	note A_, 4
	octave 4
	note C_, 4
	octave 3
	note F_, 4
	note __, 4
	note A#, 4
	note A_, 4
	note A#, 2
	intensity $70
	note D_, 1
	note F_, 1
	intensity $72
	note A#, 4
	note G_, 4
	note G_, 4
	note G_, 4
	intensity $50
	octave 2
	note F_, 4
	octave 3
	note A_, 4
	octave 4
	note C_, 4
	octave 3
	note A_, 4
	octave 4
	note F_, 4
	note C_, 4
	octave 3
	note A_, 4
	octave 4
	note C_, 4
	octave 2
	note F_, 4
	octave 4
	note F_, 4
	octave 2
	note A_, 4
	octave 3
	note A_, 4
	octave 4
	note F_, 4
	note D#, 4
	note C_, 4
	octave 3
	note A_, 4
	octave 2
	note A#, 4
	octave 4
	note F_, 4
	octave 2
	note F_, 4
	octave 3
	note F_, 4
	octave 4
	note D_, 4
	octave 3
	note A#, 4
	note F_, 4
	note A#, 4
	octave 2
	note F_, 4
	octave 4
	note D_, 4
	octave 2
	note A#, 4
	octave 3
	note F_, 4
	note A_, 4
	note D_, 4
	octave 4
	note C_, 4
	octave 3
	note G_, 4
	octave 2
	note A#, 4
	octave 4
	note D#, 4
	octave 3
	note A#, 4
	note G_, 4
	octave 4
	note G_, 4
	octave 3
	note A#, 4
	octave 4
	note C_, 4
	note C#, 4
	note D_, 4
	octave 3
	note A#, 4
	note F_, 4
	note A#, 4
	octave 4
	note F_, 4
	note D_, 4
	octave 3
	note A#, 4
	octave 4
	note D_, 4
	octave 2
	note A#, 4
	octave 4
	note D_, 4
	octave 2
	note F_, 4
	octave 3
	note A#, 4
	octave 2
	note A#, 4
	octave 3
	note F_, 4
	note A#, 4
	note B_, 4
	octave 4
	note C_, 4
	octave 3
	note A_, 4
	note F_, 4
	note A_, 4
	note D#, 4
	note F_, 4
	note A_, 4
	octave 4
	note C_, 4
	octave 2
	note G_, 4
	octave 4
	note D#, 4
	octave 3
	note A#, 4
	note G_, 4
	octave 4
	note D#, 4
	octave 3
	note A#, 4
	note G_, 4
	octave 4
	note G_, 4
	note D_, 4
	octave 3
	note A#, 4
	note F_, 4
	note A#, 4
	note D_, 4
	note F_, 4
	note A#, 4
	octave 4
	note D_, 4
	octave 2
	note A_, 4
	octave 4
	note C_, 4
	octave 3
	note A_, 4
	note F_, 4
	octave 4
	note D#, 4
	octave 3
	note F_, 4
	note A_, 4
	note D#, 4
	octave 4
	note D_, 4
	octave 3
	note A#, 4
	note F_, 4
	note A#, 4
	note D_, 4
	note F_, 4
	note A#, 4
	octave 4
	note D_, 4
	octave 2
	note A#, 4
	octave 4
	note D#, 4
	note C_, 4
	octave 3
	note G_, 4
	octave 4
	note D_, 4
	note C_, 4
	octave 3
	note G_, 4
	octave 4
	note C_, 4
	note D_, 4
	octave 3
	note A#, 4
	octave 4
	note F_, 4
	note D_, 4
	note A#, 4
	note F_, 4
	note D_, 4
	note C_, 4
	octave 2
	note A_, 4
	octave 4
	note C_, 4
	octave 3
	note C_, 4
	note F_, 4
	octave 4
	note F_, 4
	octave 3
	note F_, 4
	note A_, 4
	note F_, 4
	octave 2
	note F_, 4
	octave 3
	note A#, 4
	octave 2
	note F_, 4
	octave 3
	note D#, 4
	octave 4
	note D_, 4
	octave 3
	note F_, 4
	note D_, 4
	note F_, 4
	octave 2
	note F_, 4
	octave 3
	note A#, 4
	octave 2
	note F_, 4
	octave 3
	note D_, 4
	octave 4
	note D_, 4
	octave 3
	note F_, 4
	note D_, 4
	note F_, 4
	loopchannel 0, Music_FallarborTown_Ch1
 
Music_FallarborTown_Ch2:
	dutycycle $1
	vibrato $18, $33
	tone $0001
	notetype $c, $a7
	octave 4
	note F_, 12
	note D#, 2
	note D_, 2
	note C_, 12
	octave 3
	note A#, 2
	octave 4
	note C_, 2
	note D_, 4
	note D#, 4
	note F_, 4
	note G_, 4
	note F_, 16
	note G_, 12
	note A_, 2
	note A#, 2
	note F_, 4
	note D_, 4
	octave 3
	note A#, 4
	octave 4
	note D#, 4
	note D_, 12
	note D#, 2
	note D_, 2
	note C_, 16
	note G_, 12
	note F_, 2
	note D#, 2
	note F_, 4
	note D_, 4
	octave 3
	note A#, 8
	octave 4
	note D#, 8
	notetype $8, $a7
	note D#, 4
	note D_, 4
	note C_, 4
	notetype $c, $a7
	note D_, 8
	note F_, 8
	note G_, 10
	note G_, 2
	note A_, 2
	note A#, 2
	note F_, 4
	note D_, 4
	octave 3
	note A#, 4
	octave 4
	note D#, 4
	note D_, 8
	notetype $6, $a7
	note C_, 1
	note D_, 1
	note C_, 6
	notetype $c, $a7
	octave 3
	note G_, 2
	note A_, 2
	note A#, 8
	dutycycle $0
	notetype $6, $a7
	octave 4
	note F#, 1
	note F_, 3
	notetype $c, $a7
	note D#, 2
	note D_, 2
	note D#, 2
	note F_, 12
	note D#, 2
	note D_, 2
	notetype $6, $a7
	note C_, 1
	note D_, 1
	notetype $c, $a7
	note C_, 11
	octave 3
	note A#, 2
	octave 4
	note C_, 2
	note D_, 4
	note D#, 4
	note F_, 4
	note G_, 4
	note F_, 12
	note D#, 2
	note F_, 2
	notetype $6, $a7
	note G#, 1
	note G_, 3
	note G_, 16
	notetype $c, $a7
	note G_, 2
	note A_, 2
	note A#, 2
	notetype $6, $a7
	octave 4
	note E_, 1
	note F_, 7
	notetype $c, $a7
	note D_, 4
	octave 3
	note A#, 4
	octave 4
	note D#, 4
	notetype $6, $a7
	note C#, 1
	note D_, 15
	notetype $8, $a7
	note D_, 4
	note D#, 4
	note D_, 4
	notetype $c, $a7
	note C_, 12
	dutycycle $3
	note F_, 2
	note F#, 2
	note G_, 10
	notetype $6, $a7
	note G#, 1
	note G_, 3
	notetype $c, $a7
	note A_, 2
	note G_, 2
	note F_, 4
	note D_, 4
	octave 3
	note A#, 2
	note __, 6
	octave 4
	note D#, 8
	notetype $8, $a7
	note D#, 1
	note F_, 1
	note D#, 2
	note D_, 4
	note C_, 4
	notetype $c, $a7
	note D_, 4
	note D#, 4
	note F_, 4
	note F#, 4
	note G_, 6
	note __, 4
	note G_, 2
	note A_, 2
	note A#, 2
	octave 5
	note D_, 4
	note C_, 4
	octave 4
	note A#, 4
	note F_, 4
	note D_, 8
	notetype $6, $a7
	note C_, 1
	note D_, 1
	note C_, 6
	notetype $c, $a7
	octave 3
	note G_, 2
	note A_, 2
	note A#, 16
	note __, 8
	octave 4
	note F_, 2
	note D#, 2
	note D_, 2
	note D#, 2
	loopchannel 0, Music_FallarborTown_Ch2
 
Music_FallarborTown_Ch3:
	notetype $c, $26
	note __, 10
	note __, 10
	octave 3
	note F_, 2
	note __, 2
	note A_, 2
	note __, 2
	octave 4
	note C_, 2
	note __, 12
	note __, 10
	intensity $25
	octave 3
	note A#, 4
	note A_, 4
	note G#, 4
	note G_, 4
	note D#, 4
	note F_, 4
	note G_, 4
	note F_, 4
	note D_, 4
	octave 2
	note A#, 4
	octave 3
	note D#, 4
	note D_, 4
	octave 2
	note A#, 4
	note G_, 4
	octave 3
	note D#, 2
	note D_, 2
	intensity $13
	octave 6
	note D#, 1
	note F_, 1
	note D#, 2
	note C_, 1
	intensity $33
	note C_, 1
	intensity $13
	octave 5
	note A_, 1
	intensity $33
	note A_, 1
	intensity $13
	note F_, 1
	intensity $33
	note F_, 1
	intensity $13
	note D#, 1
	intensity $33
	note D#, 1
	intensity $13
	note C_, 1
	intensity $33
	note C_, 1
	intensity $13
	note F_, 1
	intensity $33
	note F_, 1
	intensity $25
	octave 2
	callchannel Music_FallarborTown_Ch3_branch_1
	octave 4
	note D#, 4
	octave 2
	note F_, 4
	octave 3
	note C_, 4
	note F_, 4
	note A_, 4
	octave 2
	note A#, 16
	note F_, 12
	note A_, 2
	octave 3
	note C_, 2
	octave 2
	note F_, 2
	note __, 2
	note F_, 4
	note A_, 2
	octave 3
	note C_, 2
	octave 2
	note F_, 2
	note A_, 2
	note A#, 12
	octave 3
	note D_, 2
	note F_, 2
	octave 2
	note A#, 2
	note __, 2
	octave 3
	note A#, 4
	note A_, 4
	note F_, 4
	note D#, 12
	note F_, 2
	note G_, 2
	note F_, 2
	note __, 2
	note F_, 4
	octave 2
	note A#, 4
	octave 3
	note D#, 4
	note D_, 4
	octave 2
	note A#, 4
	note G_, 4
	octave 3
	note D#, 2
	note D_, 2
	note C_, 2
	note __, 2
	note C_, 4
	octave 2
	note D#, 4
	note F_, 4
	callchannel Music_FallarborTown_Ch3_branch_1
	octave 4
	note F_, 4
	octave 2
	note F_, 4
	octave 3
	note C_, 4
	note F_, 4
	note A_, 4
	octave 2
	note A#, 12
	note G#, 2
	note A_, 2
	note A#, 8
	octave 3
	note F_, 8
	loopchannel 0, Music_FallarborTown_Ch3
 
Music_FallarborTown_Ch3_branch_1:
	note G_, 4
	octave 3
	note C_, 4
	note D#, 4
	note G_, 4
	note F_, 4
	note D_, 4
	octave 2
	note A#, 2
	note __, 2
	octave 3
	note D#, 4
	octave 2
	note F_, 4
	octave 3
	note C_, 4
	note F_, 4
	note A_, 4
	note F_, 4
	note A#, 4
	note D_, 2
	note __, 2
	octave 2
	note A#, 4
	octave 3
	note C_, 4
	note G_, 4
	octave 4
	note C_, 4
	note D#, 4
	note F_, 4
	note D_, 4
	octave 3
	note A#, 4
	endchannel
