Music_FortreeCity:
	musicheader 4, 1, Music_FortreeCity_Ch1
	musicheader 1, 2, Music_FortreeCity_Ch2
	musicheader 1, 3, Music_FortreeCity_Ch3
	musicheader 1, 4, Music_FortreeCity_Ch4

Music_FortreeCity_Ch1:
	tempo $99
	volume $77
	stereopanning $77
	notetype $C, $00
	note __, 16
	note __, 8
	dutycycle 1
	octave 2
	notetype $8, $A3
	note __, 4
	note E_, 2
	intensity $A5
	note F_, 4
	note G_, 2
Music_FortreeCity_Ch1_loop:
	intensity $A3
	note A_, 6
	octave 3
	note C_, 4
	intensity $A1
	octave 2
	note A_, 2
	note __, 4
	intensity $A3
	note A_, 2
	octave 3
	note C_, 4
	octave 2
	note A_, 2
	intensity $A1
	octave 3
	note D_, 2
	intensity $A3
	note D_, 4
	note F_, 4
	note D_, 2
	note __, 4
	note D_, 2
	note F_, 4
	note D_, 2
	octave 2
	note A#, 6
	note F_, 2
	note __, 2
	note A_, 4
	note __, 2
	octave 3
	note F_, 8
	intensity $A1
	note C_, 2
	intensity $A3
	note C_, 4
	note F_, 4
	note C_, 2
	note __, 4
	note C_, 2
	note F_, 4
	note C_, 2
	note G_, 4
	intensity $A1
	note G_, 2
	note E_, 2
	note __, 2
	intensity $A3
	note G_, 4
	note __, 2
	note E_, 2
	note F_, 2
	note __, 2
	note G_, 2
	note A_, 4
	intensity $A1
	note A_, 2
	note F_, 2
	note __, 2
	intensity $A3
	note A_, 4
	note __, 2
	note F_, 2
	note G_, 2
	note __, 2
	note A_, 2
	intensity $A5
	vibrato $08, $22
	note F_, 10
	note D_, 8
	note F_, 6
	intensity $A3
	vibrato $00, $00
	note C_, 4
	intensity $A1
	note C_, 2
	note E_, 2
	note __, 2
	note C_, 2
	note A#, 2
	note A_, 2
	note G_, 2
	note E_, 2
	note D_, 2
	note C_, 2
	intensity $A3
	octave 2
	note A_, 6
	octave 3
	note C_, 4
	intensity $A1
	octave 2
	note A_, 2
	note __, 4
	intensity $A3
	note A_, 2
	octave 3
	note C_, 4
	octave 2
	note A_, 2
	intensity $A1
	octave 3
	note D_, 2
	intensity $A3
	note D_, 4
	note F_, 4
	note D_, 2
	note __, 4
	note D_, 2
	note F_, 4
	note D_, 2
	octave 2
	note G_, 6
	note F_, 2
	note __, 2
	note A_, 4
	note __, 2
	octave 3
	note F_, 8
	intensity $A1
	note C_, 2
	intensity $A3
	note C_, 4
	note F_, 4
	note C_, 2
	note __, 4
	note C_, 2
	note F_, 4
	note C_, 2
	note E_, 4
	intensity $A1
	note E_, 2
	note E_, 2
	note __, 2
	intensity $A3
	note G_, 4
	note __, 2
	note C_, 2
	note D_, 2
	note __, 2
	note G_, 2
	note A_, 4
	intensity $A1
	note A_, 2
	note G_, 2
	note __, 2
	intensity $A3
	note A_, 2
	note F_, 2
	note __, 2
	note C_, 2
	note D_, 2
	note __, 2
	note D_, 2
	intensity $A5
	vibrato $08, $22
	note A_, 10
	note G_, 8
	note A_, 6
	intensity $A3
	vibrato $00, $00
	note C_, 4
	intensity $A1
	note C_, 2
	note E_, 2
	note __, 2
	note C_, 2
	note A#, 2
	note A_, 2
	note G_, 2
	note E_, 2
	note D_, 2
	note C_, 2
	octave 2
	loopchannel 0, Music_FortreeCity_Ch1_loop

Music_FortreeCity_Ch2:
	dutycycle 2
	octave 2
	notetype $8, $A1
	note F_, 2
	note F_, 2
	note __, 2
	octave 3
	note C_, 2
	note __, 2
	octave 2
	note F_, 2
	note F_, 2
	note __, 8
	note F_, 2
	note F_, 2
	note __, 8
	note F_, 2
	note C_, 2
	note __, 2
	intensity $A5
	note C_, 2
	note D_, 4
	note E_, 2
Music_FortreeCity_Ch2_loop:
	intensity $A3
	note F_, 2
	note __, 2
	note F_, 4
	note __, 2
	note F_, 2
	note __, 4
	note F_, 4
	note __, 2
	note F_, 2
	intensity $A1
	note A#, 2
	note A#, 2
	note __, 2
	intensity $A3
	octave 3
	note D_, 2
	note __, 2
	intensity $A1
	octave 2
	note A#, 2
	intensity $A3
	note A#, 4
	note __, 6
	note F_, 2
	dutycycle 1
	intensity $A5
	octave 4
	note C#, 10
	note C_, 6
	octave 3
	note A#, 2
	octave 4
	note C_, 2
	note __, 2
	octave 3
	note A#, 2
	intensity $A0
	note A_, 12
	intensity $A5
	vibrato $00, $22
	note A_, 6
	intensity $33
	note A_, 3
	note __, 3
	intensity $A1
	vibrato $00, $00
	octave 4
	note E_, 2
	note __, 4
	note G_, 2
	note D_, 2
	note F#, 2
	note G_, 2
	note __, 10
	note A_, 2
	note __, 4
	note A_, 2
	note E_, 2
	note G#, 2
	note A_, 2
	note __, 10
	intensity $A3
	octave 3
	note A#, 2
	note __, 2
	note A_, 2
	note A#, 2
	note __, 2
	note G_, 4
	note __, 2
	octave 4
	note D_, 2
	note E_, 2
	note __, 2
	note D_, 2
	intensity $A0
	note C_, 12
	intensity $A5
	vibrato $00, $22
	note C_, 6
	intensity $33
	note C_, 3
	note __, 3
	dutycycle 2
	intensity $A3
	vibrato $00, $00
	octave 2
	note F_, 2
	note __, 2
	note F_, 4
	note __, 2
	note F_, 2
	note __, 4
	note F_, 4
	note __, 2
	note F_, 2
	intensity $A1
	note A#, 2
	note A#, 2
	note __, 2
	intensity $A3
	octave 3
	note D_, 2
	note __, 2
	intensity $A1
	octave 2
	note A#, 2
	intensity $A3
	note A#, 4
	note A#, 2
	note A_, 4
	note F_, 2
	dutycycle 1
	intensity $A5
	octave 3
	note A#, 10
	note A_, 6
	note G_, 2
	note A_, 2
	note __, 2
	note A#, 2
	intensity $A0
	octave 4
	note C_, 12
	intensity $A5
	vibrato $00, $22
	note C_, 6
	intensity $33
	note C_, 3
	note __, 3
	intensity $A3
	vibrato $00, $00
	octave 3
	note G_, 2
	note __, 2
	note F_, 2
	note G_, 2
	note __, 2
	octave 2
	note A#, 4
	note __, 2
	octave 3
	note E_, 2
	note F_, 4
	note G_, 2
	note F_, 2
	note __, 4
	note E_, 2
	note __, 4
	note C_, 4
	note __, 2
	note D_, 2
	note __, 2
	note E_, 2
	notetype $C, $A7
	note F_, 12
	notetype $8, $A7
	notetype $8, $A7
	note F_, 2
	note __, 2
	note F_, 2
	intensity $A0
	note G_, 12
	intensity $A5
	vibrato $00, $22
	note G_, 6
	intensity $33
	note G_, 3
	note __, 3
	vibrato $00, $00
	octave 2
	loopchannel 0, Music_FortreeCity_Ch2_loop

Music_FortreeCity_Ch3:
	dutycycle 3
	octave 5
	notetype $8, $13
	note F_, 2
	note __, 2
	note E_, 2
	note C_, 2
	note __, 2
	octave 4
	note A#, 2
	note A_, 2
	note __, 2
	note G_, 2
	note A_, 2
	note __, 2
	note A#, 2
	octave 5
	note C_, 12
	intensity $23
	vibrato $00, $22
	note C_, 6
	intensity $33
	note C_, 3
	note __, 3
Music_FortreeCity_Ch3_loop:
	intensity $13
	vibrato $00, $00
	octave 4
	note F_, 4
	note A_, 2
	note A#, 2
	notetype $F, $13
	note __, 1
	octave 5
	notetype $8, $13
	note C_, 4
	note __, 2
	notetype $1, $13
	note __, 1
	notetype $8, $13
	note D_, 2
	note E_, 2
	note __, 2
	note F_, 2
	vibrato $0E, $22
	note G_, 10
	note F_, 10
	intensity $23
	vibrato $00, $22
	note F_, 2
	note __, 2
	intensity $13
	vibrato $0E, $22
	note G_, 10
	note F_, 6
	note C#, 2
	note D#, 2
	note __, 2
	note C#, 2
	vibrato $00, $00
	note C_, 12
	intensity $23
	vibrato $00, $22
	note C_, 6
	intensity $33
	note C_, 3
	note __, 3
	intensity $13
	vibrato $00, $00
	octave 4
	note A#, 2
	note __, 2
	note A_, 2
	note A#, 2
	note __, 2
	note G_, 4
	note __, 2
	note G_, 2
	note A_, 2
	note __, 2
	note A#, 2
	octave 5
	note C_, 2
	note __, 2
	note C_, 2
	octave 4
	note A_, 2
	note __, 2
	octave 5
	note C_, 6
	vibrato $00, $22
	notetype $B, $23
	note C_, 4
	notetype $A, $23
	note __, 2
	vibrato $00, $00
	notetype $8, $13
	note D_, 2
	note __, 2
	note C_, 2
	note D_, 2
	note __, 2
	octave 4
	note A#, 4
	note __, 2
	octave 5
	note F_, 2
	note G_, 2
	note __, 2
	note F_, 2
	note E_, 12
	intensity $23
	vibrato $00, $22
	note E_, 6
	intensity $33
	note E_, 3
	note __, 3
	intensity $13
	vibrato $00, $00
	octave 4
	note F_, 4
	note A_, 2
	note A#, 2
	notetype $F, $13
	note __, 1
	octave 5
	notetype $8, $13
	note C_, 4
	note __, 2
	notetype $1, $13
	note __, 1
	notetype $8, $13
	note D_, 2
	note E_, 2
	note __, 2
	note F_, 2
	vibrato $0E, $22
	note G_, 10
	note F_, 10
	intensity $23
	vibrato $00, $22
	note F_, 2
	note __, 2
	intensity $13
	vibrato $0E, $22
	note G_, 10
	note F_, 6
	note E_, 2
	note F_, 4
	note G_, 2
	vibrato $00, $00
	note A_, 12
	intensity $23
	vibrato $00, $22
	note A_, 6
	intensity $33
	note A_, 3
	note __, 3
	intensity $13
	vibrato $00, $00
	note A#, 2
	note __, 2
	note A_, 2
	note A#, 2
	note __, 2
	note D_, 4
	note __, 2
	note G_, 2
	note A_, 4
	note A#, 2
	note A_, 2
	note __, 4
	note G_, 2
	note __, 4
	note F_, 4
	note __, 2
	octave 4
	note A_, 2
	note __, 2
	note A#, 2
	octave 5
	note C_, 10
	intensity $23
	vibrato $00, $22
	note C_, 6
	note __, 2
	intensity $13
	vibrato $00, $00
	note C_, 2
	note __, 2
	note D_, 2
	note E_, 12
	intensity $23
	vibrato $00, $22
	note E_, 6
	intensity $33
	note E_, 3
	note __, 3
	loopchannel 0, Music_FortreeCity_Ch3_loop

Music_FortreeCity_Ch4:
	togglenoise 4
	notetype $8
	note D#, 2
	note __, 4
	note F#, 2
	note __, 2
	note D#, 2
	note D#, 2
	note __, 4
	note B_, 2
	note __, 4
	note D#, 2
	note __, 4
	note F#, 2
	note __, 2
	note D#, 2
	note D#, 2
	note __, 4
	note B_, 2
	note __, 4
Music_FortreeCity_Ch4_loop:
	note D#, 2
	note __, 2
	note D#, 2
	note F#, 2
	note __, 2
	note C#, 2
	note D#, 2
	note __, 2
	note D#, 2
	note B_, 2
	note __, 2
	note C#, 2
	loopchannel 0, Music_FortreeCity_Ch4_loop
	