Music_Route201:
	musicheader 4, 1, Music_Route201_Ch1
	musicheader 1, 2, Music_Route201_Ch2
	musicheader 1, 3, Music_Route201_Ch3
	musicheader 1, 4, Music_Route201_Ch4
; demade by Monstarules
Music_Route201_Ch1:
	tempo $9A
	volume $77
	stereopanning $77
	dutycycle 1
	octave 3
	notetype $C, $81
	callchannel Music_Route201_Ch1_S1
Music_Route201_Ch1_loop:
	callchannel Music_Route201_Ch1_S1
	dutycycle 0
	intensity $B1
	vibrato $00, $00
	note E_, 2
	note D_, 2
	note C_, 2
	note D_, 2
	note C_, 2
	octave 3
	note G_, 2
	intensity $B5
	vibrato $02, $14
	note E_, 4
	intensity $B1
	vibrato $00, $00
	note F_, 2
	note E_, 2
	note F_, 2
	note D_, 2
	note E_, 2
	intensity $B5
	vibrato $02, $14
	octave 4
	note C_, 6
	dutycycle 1
	intensity $B1
	vibrato $00, $00
	note F_, 2
	dutycycle 0
	note E_, 2
	note F_, 2
	note D_, 2
	note E_, 2
	dutycycle 1
	intensity $B5
	vibrato $02, $14
	note C_, 6
	dutycycle 0
	intensity $B1
	vibrato $00, $00
	note D_, 2
	note C_, 2
	octave 3
	note B_, 2
	note G_, 2
	note F_, 2
	note __, 2
	octave 4
	note G_, 1
	note F_, 1
	note E_, 1
	note D_, 1
	octave 3
	callchannel Music_Route201_Ch1_S2
	intensity $a5
	vibrato $02, $14
	note B_, 4
	note G_, 4
	note E_, 4
	note G_, 4
	dutycycle 0
	intensity $B1
	vibrato $00, $00
	callchannel Music_Route201_Ch1_S2
	dutycycle 0
	octave 4
	note D_, 2
	octave 3
	note B_, 2
	note G_, 2
	note B_, 2
	note __, 2
	note E_, 2
	intensity $B2
	octave 4
	note C_, 1
	note D_, 1
	note E_, 1
	note F_, 1
	intensity $B7
	vibrato $02, $14
	note G_, 6
	octave 5
	note C_, 6
	octave 4
	note B_, 4
	intensity $B2
	vibrato $00, $00
	note A_, 2
	note G_, 2
	note E_, 2
	note D_, 2
	note E_, 2
	intensity $B5
	vibrato $02, $14
	note C_, 4
	intensity $B2
	vibrato $00, $00
	note A_, 2
	intensity $B7
	vibrato $02, $14
	note G_, 6
	octave 5
	note C_, 6
	octave 4
	note B_, 4
	intensity $B2
	vibrato $00, $00
	note A_, 2
	note G_, 2
	note E_, 2
	intensity $B5
	vibrato $02, $14
	note C_, 4
	octave 3
	note G_, 2
	octave 4
	note D_, 2
	intensity $6C
	note C_, 2
	intensity $D5
	note C_, 2
	intensity $A0
	note C_, 6
	intensity $B7
	note C_, 8
	intensity $81
	loopchannel 0, Music_Route201_Ch1_loop
Music_Route201_Ch1_S1:
	octave 3
	note C_, 2
	note C_, 2
	intensity $95
	vibrato $02, $14
	octave 4
	note C_, 4
	intensity $81
	vibrato $00, $00
	octave 3
	note C_, 2
	note C_, 2
	intensity $95
	vibrato $02, $14
	octave 4
	note C_, 4
	vibrato $00, $00
	intensity $81
	endchannel
Music_Route201_Ch1_S2:
	note A_, 2
	dutycycle 1
	note C_, 2
	dutycycle 0
	note A_, 2
	dutycycle 1
	note C_, 2
	dutycycle 0
	note G_, 2
	dutycycle 1
	note C_, 2
	dutycycle 0
	note G_, 2
	dutycycle 1
	note C_, 2
	endchannel

Music_Route201_Ch2:
	notetype $C, $00
	note __, 2
	intensity $92
	octave 3
	note G_, 2
	octave 4
	note E_, 2
	octave 3
	note G_, 2
	note __, 2
	note A_, 2
	octave 4
	note F_, 2
	octave 3
	note A_, 2
	note __, 2
	note B_, 2
	octave 4
	note G_, 2
	octave 3
	note B_, 2
	note __, 2
	note A_, 2
	octave 4
	note F_, 2
	intensity $91
	octave 3
	note A_, 1
	dutycycle 2
	octave 4
	notetype $6, $D1
	note E_, 1
	note F_, 1
	note G_, 4
	note F_, 4
	note E_, 4
	note F_, 4
	note E_, 4
	note C_, 4
	intensity $D5
	vibrato $02, $14
	octave 3
	note G_, 8
	intensity $D1
	vibrato $00, $00
	note A_, 4
	note G_, 4
	note A_, 4
	note B_, 4
	octave 4
	note C_, 4
	intensity $D5
	vibrato $02, $14
	note G_, 10
	intensity $D1
	vibrato $00, $00
	note F_, 1
	note G_, 1
	note A_, 4
	note G_, 4
	note A_, 4
	note B_, 4
	octave 5
	note C_, 4
	intensity $D5
	vibrato $02, $14
	octave 4
	note G_, 12
	intensity $D1
	vibrato $00, $00
	note F_, 4
	note E_, 4
	note D_, 4
	note C_, 4
	note A_, 4
	note __, 4
	note G_, 4
	note __, 4
	note C_, 4
	note __, 4
	note C_, 4
	note __, 4
	note C_, 4
	note __, 4
	note C_, 4
	note __, 4
	note G_, 4
	note F_, 4
	note E_, 4
	note D_, 4
	note E_, 4
	note C_, 4
	octave 3
	note G_, 4
	octave 4
	note D_, 4
	note C_, 4
	note __, 4
	note C_, 4
	note __, 4
	note C_, 4
	note __, 4
	note C_, 4
	note __, 4
	octave 3
	note G_, 4
	octave 4
	note D_, 4
	note E_, 4
	note D_, 4
	note __, 4
	note C_, 4
	octave 3
	note E_, 4
	note C_, 4
	intensity $D7
	vibrato $02, $14
	octave 4
	note C_, 12
	note E_, 12
	note D_, 8
	intensity $D2
	vibrato $00, $00
	note C_, 4
	note D_, 4
	note C_, 4
	octave 3
	note G_, 4
	octave 4
	note C_, 4
	intensity $D5
	vibrato $02, $14
	octave 3
	note G_, 12
	intensity $D7
	octave 4
	note C_, 12
	note E_, 12
	note D_, 8
	intensity $D5
	octave 2
	note A_, 12
	intensity $D2
	vibrato $00, $00
	note F_, 4
	note G_, 4
	note G_, 4
	note A_, 4
	note B_, 4
	dutycycle 0
	loopchannel 0, Music_Route201_Ch2

Music_Route201_Ch3:
	dutycycle 1
	octave 3
	notetype $C, $11
	note E_, 8
	note F_, 8
	note G_, 8
	note F_, 8
	note C_, 2
	note G_, 2
	note E_, 2
	note G_, 2
	note C_, 2
	note G_, 2
	note E_, 2
	note G_, 2
	note F_, 2
	note A_, 2
	note F_, 2
	note A_, 2
	note C_, 2
	note G_, 2
	note E_, 2
	note G_, 2
	note F_, 2
	note A_, 2
	note F_, 2
	note A_, 2
	note E_, 2
	note C_, 2
	note E_, 2
	note G_, 2
	note D_, 2
	note E_, 2
	note F_, 2
	note F#, 2
	note G_, 2
	note B_, 2
	octave 4
	note D_, 2
	octave 3
	note G_, 2
	note F_, 2
	note __, 2
	note F_, 2
	note __, 2
	note C_, 2
	note __, 2
	note C_, 2
	note __, 4
	note G_, 2
	note A_, 2
	note B_, 2
	octave 4
	note C_, 2
	octave 3
	note G_, 2
	note E_, 2
	note G_, 2
	note F_, 2
	note __, 2
	note F_, 2
	note __, 2
	note C_, 2
	note __, 2
	note C_, 2
	note __, 2
	note B_, 2
	note G_, 2
	note A_, 2
	note B_, 2
	note C_, 2
	note G_, 2
	octave 4
	note E_, 2
	note C_, 2
	octave 3
	note F_, 8
	note G_, 8
	note E_, 8
	note C_, 6
	note E_, 2
	note F_, 8
	note C_, 8
	note F_, 8
	note G_, 4
	note A_, 2
	note B_, 2
	loopchannel 0, Music_Route201_Ch3

Music_Route201_Ch4:
	togglenoise 3
	notetype $C
Music_Route201_Ch4_loop:
	note __, 4
	note E_, 1
	note __, 7
	note E_, 1
	note __, 7
	note E_, 1
	note __, 7
	note E_, 1
	note __, 3
	loopchannel 0, Music_Route201_Ch4_loop
	