Music_Route205:
	musicheader 4, 1, Music_Route205_Ch1
	musicheader 1, 2, Music_Route205_Ch2
	musicheader 1, 3, Music_Route205_Ch3
	musicheader 1, 4, Music_Route205_Ch4
; demade by Monstarules
Music_Route205_Ch1:
	tempo $5F
	volume $77
	stereopanning $77
Music_Route205_Ch1_loop:
	dutycycle 2
	octave 4
	notetype $C, $B1
	note D_, 1
	note __, 3
	note D_, 1
	note __, 3
	note D_, 2
	octave 1
	note G_, 2
	note B_, 2
	octave 2
	note D_, 2
	octave 4
	note C_, 1
	note __, 3
	note C_, 1
	note __, 3
	note C_, 2
	octave 1
	note A_, 2
	octave 2
	note C_, 2
	note F_, 2
	octave 3
	note A_, 1
	note __, 3
	note A_, 1
	note __, 3
	note C_, 1
	note __, 1
	note C_, 1
	note __, 1
	note C_, 1
	note __, 1
	note C_, 1
	note __, 1
	intensity $B5
	octave 2
	note B_, 1
	note __, 3
	note B_, 1
	note __, 3
	dutycycle 1
	intensity $B3
	note D_, 2
	note G_, 2
	note B_, 2
	octave 3
	note D_, 2
	dutycycle 2
	intensity $E1
	note D_, 1
	octave 2
	note G_, 1
	octave 3
	note G_, 1
	note D_, 1
	octave 4
	note G_, 1
	note D_, 1
	note G_, 1
	octave 3
	note G_, 1
	intensity $B2
	octave 4
	note D_, 2
	octave 3
	note G_, 2
	octave 4
	note G_, 2
	octave 5
	note D_, 2
	intensity $E1
	octave 3
	note C_, 1
	octave 2
	note F_, 1
	octave 3
	note F_, 1
	note C_, 1
	octave 4
	note F_, 1
	note C_, 1
	octave 3
	note F_, 1
	note C_, 1
	intensity $B2
	octave 4
	note C_, 2
	octave 3
	note F_, 2
	octave 4
	note F_, 2
	octave 5
	note C_, 2
	intensity $B7
	octave 3
	note A_, 12
	intensity $A1
	note A_, 1
	note __, 1
	note A_, 1
	note A_, 1
	intensity $B3
	note A_, 8
	intensity $B4
	vibrato $00, $44
	note A_, 8
	note __, 8
	dutycycle 0
	intensity $83
	vibrato $00, $00
	octave 4
	note D_, 2
	note __, 2
	note G_, 2
	note __, 2
	note F#, 2
	note G_, 2
	note F#, 1
	note __, 3
	note D_, 2
	note __, 2
	octave 3
	note G_, 2
	note __, 2
	intensity $A7
	vibrato $08, $22
	octave 4
	note C_, 16
	intensity $83
	vibrato $00, $00
	note A_, 2
	note B_, 2
	octave 5
	note C_, 2
	note __, 2
	octave 4
	note F#, 2
	note G_, 2
	note A_, 2
	note __, 2
	note C_, 2
	note __, 2
	octave 5
	note C_, 2
	note __, 2
	note E_, 2
	note __, 2
	note A_, 2
	note __, 2
	note G#, 2
	note A_, 2
	note G#, 2
	note __, 2
	note E_, 2
	note __, 2
	octave 4
	note A_, 2
	note __, 2
	intensity $A7
	vibrato $08, $22
	note B_, 16
	vibrato $00, $00
	note B_, 2
	octave 5
	note C_, 2
	note D_, 2
	note __, 2
	octave 4
	note F#, 2
	note G_, 2
	note A_, 2
	note __, 2
	dutycycle 1
	intensity $A3
	note G_, 4
	note __, 4
	octave 5
	note C_, 4
	note __, 4
	intensity $A2
	octave 4
	note B_, 2
	octave 5
	note C_, 2
	octave 4
	note B_, 2
	note G_, 2
	note __, 4
	octave 5
	note D_, 4
	note E_, 4
	octave 4
	note G_, 4
	octave 5
	note C_, 2
	octave 4
	note B_, 2
	octave 5
	note C_, 4
	octave 4
	note B_, 4
	note __, 2
	note G_, 4
	note __, 2
	note D_, 4
	note E_, 6
	note B_, 4
	note G_, 4
	note A_, 2
	note G_, 6
	note D_, 4
	note G_, 4
	note F_, 2
	note E_, 4
	note __, 4
	note G_, 4
	note __, 4
	octave 5
	note D_, 4
	note __, 8
	dutycycle 2
	octave 4
	note D_, 2
	note D#, 2
	note F_, 2
	note __, 2
	note F_, 2
	note F_, 2
	octave 5
	note C_, 2
	note __, 2
	note C_, 2
	note __, 2
	octave 4
	note A#, 2
	octave 5
	note C_, 2
	octave 4
	note A#, 2
	note F_, 2
	intensity $A1
	note F_, 2
	note __, 6
	intensity $A2
	note C_, 2
	note __, 2
	note C_, 2
	note C_, 2
	note D#, 2
	note __, 2
	note D#, 2
	note __, 2
	note D_, 2
	note D#, 2
	note D_, 2
	octave 3
	note A#, 2
	intensity $A1
	note A#, 2
	note __, 6
	intensity $A2
	note A_, 2
	note __, 2
	octave 4
	note C_, 2
	note __, 2
	octave 3
	note F#, 2
	note __, 2
	note F#, 2
	note __, 2
	note G_, 2
	note __, 2
	note D_, 2
	note __, 2
	octave 4
	note C_, 2
	note __, 2
	octave 3
	note F_, 2
	note __, 6
	note C_, 1
	note F_, 1
	note A_, 1
	intensity $A7
	octave 4
	note C_, 6
	intensity $71
	note C_, 1
	note C_, 1
	note C_, 1
	intensity $A0
	note D_, 8
	intensity $A7
	vibrato $00, $22
	note D_, 4
	intensity $A1
	note D_, 1
	note __, 1
	note D_, 1
	note D_, 1
	intensity $A5
	vibrato $00, $00
	note B_, 6
	octave 3
	note G_, 2
	note __, 2
	note A_, 2
	note __, 2
	note G_, 2
	octave 4
	note E_, 2
	note __, 2
	note D_, 2
	note __, 2
	note C_, 2
	note __, 2
	note D_, 2
	note __, 2
	octave 3
	note B_, 6
	note D_, 6
	note F#, 2
	note G_, 2
	note A_, 2
	note __, 2
	note G_, 2
	note __, 2
	octave 2
	note B_, 2
	note __, 2
	octave 3
	note E_, 2
	note __, 2
	dutycycle 1
	intensity $A3
	note B_, 4
	note G_, 4
	note B_, 4
	note __, 4
	note A_, 4
	note B_, 4
	note D_, 4
	note __, 8
	intensity $A1
	note D_, 2
	note D_, 2
	intensity $A4
	octave 2
	note G_, 4
	note B_, 4
	intensity $A1
	octave 3
	note E_, 2
	note E_, 2
	octave 2
	note B_, 2
	note B_, 2
	octave 3
	note D_, 2
	note D_, 2
	intensity $A7
	octave 2
	note D_, 4
	loopchannel 0, Music_Route205_Ch1_loop

Music_Route205_Ch2:
	dutycycle 1
	octave 4
	notetype $C, $E1
	note G_, 1
	note __, 3
	note G_, 1
	note __, 3
	intensity $75
	note G_, 4
	intensity $E1
	note D_, 2
	note G_, 1
	note __, 1
	note F_, 1
	note __, 3
	note F_, 1
	note __, 3
	intensity $75
	note F_, 4
	intensity $E1
	note C_, 2
	note F_, 1
	note __, 1
	intensity $D5
	octave 5
	note C_, 2
	octave 4
	note B_, 2
	note G_, 2
	note F_, 2
	note C_, 2
	note F_, 2
	note G_, 2
	octave 5
	note C_, 2
	octave 4
	note B_, 2
	note G_, 2
	note D_, 2
	note C_, 2
	octave 3
	note B_, 2
	octave 4
	note C_, 2
	note D_, 2
	intensity $D1
	note G_, 1
	note __, 1
	note G_, 1
	note __, 1
	note G_, 1
	note __, 1
	intensity $D3
	vibrato $00, $24
	note G_, 6
	note __, 2
	intensity $D5
	vibrato $00, $00
	note G_, 4
	intensity $D1
	note F_, 1
	note __, 1
	note F_, 1
	note __, 1
	intensity $D3
	vibrato $00, $24
	note F_, 6
	note __, 2
	note F_, 4
	note D_, 12
	intensity $D1
	vibrato $00, $00
	note D_, 1
	note __, 1
	note D_, 1
	note D_, 1
	intensity $D3
	note D_, 8
	intensity $D4
	vibrato $00, $44
	note D_, 8
	dutycycle 2
	intensity $D2
	vibrato $00, $00
	note D_, 4
	note G_, 4
	note F#, 2
	note G_, 2
	note F#, 4
	note D_, 4
	octave 3
	note B_, 4
	octave 4
	note E_, 2
	note D_, 2
	octave 3
	note G_, 4
	note A_, 2
	note B_, 2
	octave 4
	note C_, 4
	octave 3
	note F#, 2
	note G_, 2
	note A_, 4
	intensity $D7
	vibrato $04, $24
	note E_, 16
	intensity $D2
	vibrato $00, $00
	octave 4
	note E_, 4
	note A_, 4
	note G#, 2
	note A_, 2
	note G#, 4
	note E_, 4
	note C_, 4
	note G_, 2
	note F#, 2
	octave 3
	note A_, 4
	note B_, 2
	octave 4
	note C_, 2
	note D_, 4
	octave 3
	note F#, 2
	note G_, 2
	note A_, 4
	intensity $D7
	vibrato $04, $24
	note D_, 12
	intensity $D2
	vibrato $00, $00
	note A_, 8
	dutycycle 0
	intensity $B3
	vibrato $00, $21
	note G_, 2
	note E_, 2
	note G_, 4
	octave 4
	note E_, 4
	note D_, 4
	intensity $B2
	note E_, 2
	octave 3
	note G_, 2
	note __, 2
	intensity $B3
	note G_, 6
	note __, 4
	note G_, 2
	note E_, 2
	note G_, 4
	octave 4
	note G_, 4
	note F#, 2
	note G_, 2
	note F#, 2
	note D_, 2
	note __, 2
	octave 3
	note G_, 4
	note D_, 2
	note E_, 6
	note B_, 4
	note G_, 4
	note A_, 2
	note G_, 6
	note D_, 4
	note G_, 4
	note F_, 2
	intensity $B1
	note E_, 2
	note E_, 2
	note G_, 2
	note G_, 2
	note A_, 2
	note A_, 2
	octave 4
	note D_, 2
	note D_, 2
	note G_, 2
	note G_, 2
	intensity $C1
	note A_, 2
	note A_, 2
	intensity $D1
	octave 5
	note D_, 4
	dutycycle 1
	vibrato $00, $00
	octave 4
	note D_, 2
	note D#, 2
	note F_, 2
	note __, 4
	note F_, 2
	note __, 4
	note G_, 2
	note __, 2
	note F_, 2
	note __, 2
	octave 3
	note F_, 2
	note __, 6
	octave 4
	note D_, 2
	note D#, 2
	note F_, 2
	note __, 2
	note A#, 2
	note __, 2
	note A_, 2
	note __, 2
	note F_, 2
	note __, 2
	note G_, 2
	note __, 2
	note F_, 2
	note __, 6
	octave 3
	note A#, 2
	octave 4
	note C_, 2
	note D_, 2
	note __, 2
	note D#, 2
	note __, 2
	note D_, 2
	note __, 2
	octave 3
	note A_, 2
	note __, 2
	note A#, 2
	note A#, 2
	octave 4
	note D_, 2
	note D_, 2
	note G_, 2
	note G_, 2
	note A_, 2
	note A_, 2
	intensity $D0
	note F_, 8
	intensity $D4
	vibrato $00, $24
	note F_, 4
	intensity $B2
	vibrato $00, $00
	note E_, 2
	note F_, 2
	intensity $D0
	note F#, 8
	intensity $B4
	vibrato $00, $24
	note F#, 4
	intensity $B2
	vibrato $00, $00
	note F_, 2
	note F#, 2
	intensity $D2
	note G_, 6
	dutycycle 0
	note D_, 2
	note __, 2
	note E_, 2
	note __, 2
	note D_, 2
	note G_, 2
	note __, 2
	note F#, 2
	note __, 2
	note E_, 2
	note __, 2
	note F#, 2
	note __, 2
	intensity $D4
	note D_, 6
	octave 3
	note G_, 6
	note A_, 2
	note B_, 2
	octave 4
	note C_, 2
	note __, 2
	octave 3
	note B_, 2
	note __, 2
	note A#, 2
	note __, 2
	note B_, 2
	note __, 2
	note G_, 2
	note __, 2
	note E_, 2
	note __, 2
	note G_, 2
	note __, 2
	octave 4
	note E_, 2
	note __, 2
	note D_, 2
	note __, 2
	note E_, 2
	note __, 2
	note G_, 2
	note __, 2
	note A_, 2
	note __, 2
	intensity $D1
	note B_, 2
	note B_, 2
	octave 5
	note C_, 2
	note C_, 2
	note C#, 2
	note C#, 2
	note D_, 2
	note D_, 2
	octave 4
	note G_, 2
	note G_, 2
	note __, 4
	note A_, 2
	note A_, 2
	note __, 4
	loopchannel 0, Music_Route205_Ch2

Music_Route205_Ch3:
	dutycycle 9
	octave 3
	notetype $C, $19
	note B_, 1
	note __, 3
	note B_, 1
	note __, 3
	vibrato $04, $24
	note B_, 8
	note A_, 1
	note __, 3
	note A_, 1
	note __, 3
	note A_, 8
	octave 4
	note C_, 2
	note __, 2
	note C_, 2
	note __, 2
	octave 3
	note F_, 1
	note __, 1
	note F_, 1
	note __, 1
	note F_, 1
	note __, 1
	note F_, 1
	note __, 1
	note G_, 2
	note __, 2
	note G_, 2
	note __, 4
	note D_, 1
	note __, 1
	note G_, 1
	note __, 1
	octave 4
	note D_, 1
	note __, 1
	note D_, 1
	note __, 1
	note D_, 1
	note __, 1
	note D_, 1
	note __, 1
	octave 3
	note G_, 1
	note __, 3
	note G_, 1
	note __, 1
	note G_, 4
	octave 4
	note C_, 1
	note __, 1
	note C_, 1
	note __, 1
	note C_, 1
	note __, 1
	octave 3
	note F_, 1
	note __, 3
	note F_, 1
	note __, 1
	note F_, 4
	note D_, 8
	note __, 4
	vibrato $00, $00
	note D_, 1
	note __, 1
	note D_, 1
	note D_, 1
	note D_, 8
	vibrato $00, $44
	octave 2
	note D_, 8
	vibrato $00, $00
	callchannel Music_Route205_Ch3_S1
	note G_, 1
	note __, 1
	note G_, 1
	note __, 1
	note G_, 1
	note __, 1
	callchannel Music_Route205_Ch3_S1
	note F_, 1
	note __, 1
	note F_, 1
	note __, 1
	note F_, 1
	note __, 1
	octave 3
	note C_, 2
	note __, 4
	note C_, 2
	note __, 4
	note G_, 2
	note __, 2
	octave 2
	note B_, 2
	note __, 4
	note B_, 2
	note __, 4
	octave 3
	note G_, 2
	note __, 2
	note C_, 2
	note __, 4
	note C_, 2
	note __, 4
	note G_, 2
	note __, 2
	octave 2
	note B_, 2
	note __, 4
	octave 3
	note E_, 2
	note __, 2
	note E_, 2
	note __, 2
	note D_, 2
	note C_, 2
	note __, 4
	note G_, 2
	note C_, 2
	note __, 4
	note F#, 2
	note E_, 2
	note __, 4
	note E_, 2
	note D_, 2
	note __, 4
	note G_, 2
	octave 4
	note C_, 2
	note C_, 2
	octave 3
	note G_, 2
	octave 4
	note C_, 2
	note C#, 2
	note C#, 2
	octave 3
	note A_, 2
	octave 4
	note C#, 2
	note D_, 2
	note D_, 2
	octave 3
	note A_, 2
	note G_, 2
	note D_, 2
	note __, 6
	note F_, 2
	note __, 2
	note F_, 2
	note F_, 2
	note F_, 2
	note F_, 2
	note G_, 2
	note A_, 2
	note A#, 2
	note __, 2
	note A#, 2
	note F_, 2
	note A#, 2
	note A#, 2
	note A_, 2
	note G_, 2
	note F_, 2
	note __, 2
	note F_, 2
	note F_, 2
	note F_, 2
	note F_, 2
	octave 4
	note C_, 2
	octave 3
	note A_, 2
	note A#, 2
	note __, 2
	note A#, 2
	note F_, 2
	octave 4
	note C_, 2
	octave 3
	note A#, 2
	note A_, 2
	note G_, 2
	note A_, 2
	note __, 2
	note D_, 2
	note __, 2
	note A_, 2
	note __, 2
	octave 4
	note C_, 2
	note __, 2
	octave 3
	note A#, 2
	note __, 2
	note D_, 2
	note __, 2
	note G_, 2
	note __, 2
	octave 4
	note C_, 2
	note __, 2
	octave 3
	note F_, 2
	note __, 4
	octave 4
	note C_, 2
	note C_, 4
	note C_, 1
	note F_, 2
	note __, 1
	note D_, 2
	octave 3
	note F#, 2
	note __, 2
	note D_, 2
	note F#, 2
	note __, 2
	note D_, 2
	note D_, 2
	note G_, 2
	note __, 16
	note __, 6
	dutycycle 5
	intensity $25
	octave 4
	note C_, 4
	note __, 12
	octave 3
	note B_, 4
	note __, 12
	note A#, 4
	note __, 4
	octave 2
	note B_, 2
	note __, 2
	note B_, 2
	note __, 7
	note B_, 1
	note B_, 1
	note B_, 1
	octave 3
	note D_, 2
	note __, 2
	note D_, 2
	note __, 7
	note D_, 1
	note D_, 1
	note D_, 1
	note D_, 2
	note __, 6
	note E_, 2
	note __, 6
	note C_, 2
	note C_, 2
	note __, 4
	note D_, 2
	note D_, 2
	note __, 2
	note D_, 2
	loopchannel 0, Music_Route205_Ch3
Music_Route205_Ch3_S1:
	note G_, 2
	note __, 2
	note G_, 2
	note __, 4
	note G_, 1
	note __, 1
	note G_, 1
	note __, 1
	note G_, 1
	note __, 1
	note G_, 2
	note __, 2
	note G_, 2
	note __, 4
	note G_, 1
	note __, 1
	note G_, 1
	note __, 1
	note G_, 1
	note __, 1
	note G_, 2
	note __, 2
	note G_, 2
	note __, 4
	note G_, 2
	note B_, 2
	octave 3
	note C_, 2
	octave 2
	note G_, 2
	note __, 2
	note G_, 2
	note __, 4
	endchannel

Music_Route205_Ch4:
	togglenoise 3
	notetype $C
Music_Route205_Ch4_loop:
	note C_, 2
	note __, 2
	callchannel Music_Route205_Ch4_S1
	note __, 8
	callchannel Music_Route205_Ch4_S1
	note __, 8
	callchannel Music_Route205_Ch4_S1
	note __, 4
	note D_, 2
	note __, 2
	note D_, 2
	note __, 6
	note D_, 1
	note D_, 1
	note D_, 1
	note __, 1
	note D_, 2
	note __, 6
	note B_, 4
	note __, 4
	callchannel Music_Route205_Ch4_S2
	note D_, 1
	note D_, 1
	note D_, 1
	note __, 1
	callchannel Music_Route205_Ch4_S2
	note D_, 2
	note __, 2
	note D_, 2
	note __, 14
	note C#, 2
	note __, 10
	note E_, 2
	note E_, 2
	note E_, 2
	note __, 14
	note C#, 2
	note __, 10
	note E_, 2
	note E_, 2
	note E_, 2
	note __, 4
	note E_, 2
	note E_, 2
	note E_, 2
	note __, 2
	note E_, 2
	note E_, 2
	note __, 4
	note E_, 2
	note __, 2
	note E_, 2
	note __, 2
	note E_, 2
	note E_, 2
	note E_, 2
	note __, 4
	note E_, 2
	note E_, 2
	note E_, 2
	note __, 2
	note E_, 2
	note E_, 2
	note E_, 2
	note E_, 2
	note __, 4
	note C#, 2
	note C#, 2
	note B_, 4
	note C#, 2
	note __, 2
	note C#, 2
	note __, 2
	note C#, 2
	note C#, 2
	note B_, 4
	note __, 4
	note C_, 4
	note C#, 2
	note C#, 2
	note B_, 4
	note __, 4
	callchannel Music_Route205_Ch4_S3
	note __, 4
	callchannel Music_Route205_Ch4_S3
	note G#, 2
	note __, 2
	note G#, 1
	note G#, 1
	note G#, 1
	note __, 1
	note G#, 2
	note G#, 2
	note __, 4
	note G#, 2
	note G#, 2
	note B_, 4
	note __, 4
	note D_, 4
	note __, 2
	note D_, 2
	note __, 2
	note D_, 2
	note C#, 1
	note C#, 1
	note C#, 1
	note __, 1
	note C#, 2
	note __, 2
	note C#, 2
	note __, 2
	note C_, 2
	note __, 2
	note D_, 2
	note C#, 1
	note C#, 1
	note C#, 1
	note __, 3
	note C#, 2
	note C#, 2
	note C#, 2
	note __, 2
	note C#, 2
	note __, 2
	note C#, 1
	note C#, 1
	note C#, 1
	note __, 1
	note C#, 2
	note __, 2
	note C#, 2
	note __, 2
	note C_, 2
	note __, 2
	note B_, 4
	note __, 8
	note C#, 1
	note C#, 1
	note C#, 1
	note __, 1
	note C#, 2
	note __, 2
	note C#, 2
	note __, 2
	note E_, 2
	note __, 2
	note C#, 1
	note C#, 1
	note C#, 1
	note __, 1
	note C#, 2
	note __, 2
	note C#, 1
	note C#, 1
	note C#, 1
	note __, 1
	note C#, 2
	note __, 2
	note C#, 1
	note C#, 1
	note C#, 1
	note __, 1
	note C#, 2
	note __, 2
	note C#, 2
	note __, 2
	note E_, 2
	note __, 2
	note C_, 2
	note C_, 2
	loopchannel 0, Music_Route205_Ch4_loop
Music_Route205_Ch4_S1:
	note C#, 2
	note __, 2
	note B_, 4
	note __, 8
	note C#, 2
	note __, 2
	note B_, 4
	endchannel
Music_Route205_Ch4_S2:
	note D_, 2
	note __, 2
	note D_, 2
	note __, 6
	note D_, 1
	note D_, 1
	note D_, 1
	note __, 1
	note D_, 2
	note __, 2
	note D_, 2
	note __, 2
	note E_, 2
	note __, 2
	note D_, 1
	note D_, 1
	note D_, 1
	note __, 1
	note D_, 2
	note __, 2
	note D_, 1
	note D_, 1
	note D_, 1
	note __, 1
	note D_, 2
	note __, 2
	note D_, 1
	note D_, 1
	note D_, 1
	note __, 1
	note D_, 2
	note __, 2
	note D_, 2
	note __, 2
	note E_, 2
	note __, 2
	endchannel
Music_Route205_Ch4_S3:
	note B_, 4
	note C#, 2
	note C#, 2
	note B_, 4
	note __, 4
	note B_, 4
	note C#, 2
	note C#, 2
	note B_, 4
	endchannel
	